<?xml version="1.0" encoding="UTF-8"?>
<svg width="448px" height="11px" viewBox="0 0 448 11" version="1.1" xmlns="http://www.w3.org/2000/svg" xmlns:xlink="http://www.w3.org/1999/xlink">
    <!-- Generator: Sketch 48.2 (47327) - http://www.bohemiancoding.com/sketch -->
    <title>Group 13</title>
    <desc>Created with Sketch.</desc>
    <defs></defs>
    <g id="Artboard" stroke="none" stroke-width="1" fill="none" fill-rule="evenodd" transform="translate(-208.000000, -1191.000000)">
        <g id="Group-13" transform="translate(209.000000, 1192.000000)" stroke="#FFF4D6">
            <path d="M223,4.5 C219.460842,10.5 210.610944,10.5 207.071786,4.5 C203.531627,-1.5 194.682731,-1.5 191.142571,4.5 C187.603413,10.5 178.754517,10.5 175.214357,4.5 C171.6752,-1.5 162.825301,-1.5 159.286144,4.5 C155.745984,10.5 146.897088,10.5 143.356928,4.5 C139.81777,-1.5 130.968874,-1.5 127.428715,4.5 C123.889557,10.5 115.039659,10.5 111.500501,4.5 C107.960341,-1.5 99.1114451,-1.5 95.5712854,4.5 C92.0321278,10.5 83.1832316,10.5 79.6430719,4.5 C76.1039142,-1.5 67.254016,-1.5 63.7148583,4.5 C60.1746986,10.5 51.3258024,10.5 47.7856427,4.5 C44.246485,-1.5 35.3975888,-1.5 31.8574292,4.5 C28.3172695,10.5 19.4683733,10.5 15.9292156,4.5 C12.3890559,-1.5 3.5401597,-1.5 0,4.5" id="Stroke-31"></path>
            <path d="M446,4.5 C442.460842,10.5 433.610944,10.5 430.071786,4.5 C426.531627,-1.5 417.682731,-1.5 414.142571,4.5 C410.603413,10.5 401.754517,10.5 398.214357,4.5 C394.6752,-1.5 385.825301,-1.5 382.286144,4.5 C378.745984,10.5 369.897088,10.5 366.356928,4.5 C362.81777,-1.5 353.968874,-1.5 350.428715,4.5 C346.889557,10.5 338.039659,10.5 334.500501,4.5 C330.960341,-1.5 322.111445,-1.5 318.571285,4.5 C315.032128,10.5 306.183232,10.5 302.643072,4.5 C299.103914,-1.5 290.254016,-1.5 286.714858,4.5 C283.174699,10.5 274.325802,10.5 270.785643,4.5 C267.246485,-1.5 258.397589,-1.5 254.857429,4.5 C251.317269,10.5 242.468373,10.5 238.929216,4.5 C235.389056,-1.5 226.54016,-1.5 223,4.5" id="Stroke-31-Copy"></path>
        </g>
    </g>
</svg>